# AST/ASF file generated using VICON BodyLanguage
# -----------------------------------------------
:version 1.10
:name VICON
:units
  mass 1.0
  length 0.45
  angle deg
:documentation
   .ast/.asf automatically generated from VICON data using
   VICON BodyBuilder and BodyLanguage model FoxedUp or BRILLIANT.MOD
:root
   order TX TY TZ RX RY RZ
   axis XYZ
   position 0 0 0  
   orientation 0 0 0 
:bonedata
  begin
     id 1 
     name lhipjoint
     direction 0.567725 -0.736092 0.368589 
     length 2.42353 
     axis 0 0 0  XYZ
  end
  begin
     id 2 
     name lfemur
     direction 0.34202 -0.939693 0  
     length 7.24894  
     axis 0 0 20  XYZ
    dof rx ry rz
    limits (-160.0 20.0)
           (-70.0 70.0)
           (-60.0 70.0)
  end
  begin
     id 3 
     name ltibia
     direction 0.34202 -0.939693 0   
     length 7.6997   
     axis 0 0 20   XYZ
    dof rx
    limits (-10.0 170.0)
  end
  begin
     id 4 
     name lfoot
     direction 0.100767 -0.276854 0.955614   
     length 2.37556   
     axis -90 7.62852e-016 20   XYZ
    dof rx rz
    limits (-45.0 90.0)
           (-70.0 20.0)
  end
  begin
     id 5 
     name ltoes
     direction 1.53592e-011 -4.21894e-011 1   
     length 1.18363   
     axis -90 7.62852e-016 20   XYZ
    dof rx
    limits (-90.0 20.0)
  end
  begin
     id 6 
     name rhipjoint
     direction -0.556459 -0.742938 0.372017   
     length 2.4012  
     axis 0 0 0  XYZ 
  end
  begin
     id 7 
     name rfemur
     direction -0.34202 -0.939693 0   
     length 7.5119   
     axis 0 0 -20   XYZ
    dof rx ry rz
    limits (-160.0 20.0)
           (-70.0 70.0)
           (-70.0 60.0)
  end
  begin
     id 8 
     name rtibia
     direction -0.34202 -0.939693 0   
     length 7.50155   
     axis 0 0 -20   XYZ
    dof rx
    limits (-10.0 170.0)
 end
 begin
     id 9 
     name rfoot
     direction -0.118427 -0.325376 0.938139   
     length 2.32487  
     axis -90 -7.62852e-016 -20   XYZ
    dof rx rz
    limits (-45.0 90.0)
           (-20.0 70.0)
  end
  begin
     id 10 
     name rtoes
     direction -1.53525e-011 -4.21868e-011 1   
     length 1.15233   
     axis -90 -7.62852e-016 -20   XYZ
    dof rx
    limits (-90.0 20.0)
  end
  begin
     id 11 
     name lowerback
     direction 0.0287568 0.999577 -0.00434502   
     length 2.15243   
     axis 0 0 0   XYZ
    dof rx ry rz
    limits (-20.0 45.0)
           (-30.0 30.0)
           (-30.0 30.0)
  end
  begin
     id 12 
     name upperback
     direction 0.0294009 0.99956 0.00404628   
     length 2.15427   
     axis 0 0 0   XYZ
    dof rx ry rz
    limits (-20.0 45.0)
           (-30.0 30.0)
           (-30.0 30.0)
  end
  begin
     id 13 
     name thorax
     direction 0.0151014 0.999868 0.0059419   
     length 2.14898   
     axis 0 0 0   XYZ
    dof rx ry rz
    limits (-20.0 45.0)
           (-30.0 30.0)
           (-30.0 30.0)
  end
  begin
     id 14 
     name lowerneck
     direction -0.0249197 0.989906 0.139515   
     length 1.6861   
     axis 0 0 0   XYZ
    dof rx ry rz
    limits (-20.0 45.0)
           (-30.0 30.0)
           (-30.0 30.0)
  end
  begin
     id 15 
     name upperneck
     direction 0.0438463 0.988795 -0.142693   
     length 1.71276   
     axis 0 0 0   XYZ
    dof rx ry rz
    limits (-20.0 45.0)
           (-30.0 30.0)
           (-30.0 30.0)
  end
  begin
     id 16
     name head
     direction 0.0148499 0.997845 -0.0639186  
     length 1.7209  
     axis 0 0 0   XYZ
    dof rx ry rz
    limits (-20.0 45.0)
           (-30.0 30.0)
           (-30.0 30.0)
  end
  begin
     id 17 
     name lclavicle
     direction 0.940298 0.323464 -0.105876  
     length 3.9048  
     axis 0 0 0   XYZ
    dof ry rz
    limits (-20.0 10.0)
           (0.0 20.0)
  end
  begin
     id 18 
     name lhumerus
     direction 1 -4.48954e-011 -4.9675e-028   
     length 4.6851   
     axis 180 -30 -90   XYZ
    dof rx ry rz
    limits (-60.0 90.0)
           (-90.0 90.0)
           (-90.0 90.0)
  end
  begin
     id 19
     name lradius
     direction 1 -4.48992e-011 -1.03359e-026   
     length 3.39626   
     axis 180 -30 -90   XYZ
    dof rx
    limits (-10.0 170.0)
  end
  begin
     id 20
     name lwrist
     direction 1 -4.48906e-011 -1.67336e-026   
     length 1.69813   
     axis 9.90442e-015 90 90   XYZ
    dof ry
    limits (-180.0 0.0)
 end
  begin
     id 21 
     name lhand
     direction 1 -4.49006e-011 -3.34673e-026   
     length 0.486078   
     axis 2.1355e-014 90 90   XYZ
    dof rx rz
    limits (-90.0 90.0)
           (-45.0 45.0)
  end
  begin
     id 22 
     name lfingers
     direction 1 -4.48992e-011 -6.69345e-026   
     length 0.391889   
     axis 4.27099e-014 90 90   XYZ
    dof rx
    limits (0.0 90.0)
  end
  begin
     id 23
     name lthumb
     direction 0.707107 -6.34926e-011 0.707107   
     length 0.562676   
     axis -90 45 2.85299e-015   XYZ
    dof rx rz
    limits (-45.0 45.0)
           (-45.0 45.0)
  end
  begin
     id 24 
     name rclavicle
     direction -0.882459 0.414895 -0.221648   
     length 3.44646  
     axis 0 0 0   XYZ 
    dof ry rz
    limits (-10.0 20.0)
           (-20.0 0.0)
  end
  begin
     id 25 
     name rhumerus
     direction -1 -4.48962e-011 -2.37984e-027  
     length 5.55576   
     axis 180 30 90   XYZ
    dof rx ry rz
    limits (-90.0 60.0)
           (-90.0 90.0)
           (-90.0 90.0)
  end
  begin
     id 26 
     name rradius
     direction -1 -4.48982e-011 -6.86791e-027   
     length 3.32774   
     axis 180 30 90   XYZ
    dof rx
    limits (-10.0 170.0)
  end
  begin
     id 27 
     name rwrist
     direction -1 -4.48961e-011 -1.67336e-026   
     length 1.66387   
     axis 9.90442e-015 -90 -90   XYZ
    dof ry
    limits (-180.0 0.0)
  end
  begin
     id 28
     name rhand
     direction -1 -4.4897e-011 -3.34673e-026   
     length 0.507628   
     axis 2.1355e-014 -90 -90   XYZ
    dof rx rz
    limits (-90.0 90.0)
           (-45.0 45.0)
  end
  begin
     id 29
     name rfingers
     direction -1 -4.48854e-011 -6.69345e-026   
     length 0.409263   
     axis 4.27099e-014 -90 -90   XYZ
    dof rx
    limits (0.0 90.0)
  end
  begin
     id 30
     name rthumb
     direction -0.707107 -6.34913e-011 0.707107   
     length 0.587622   
     axis -90 -45 -2.85299e-015   XYZ
    dof rx rz
    limits (-45.0 45.0)
           (-45.0 45.0)
  end
:hierarchy
  begin
    root lhipjoint rhipjoint lowerback
    lhipjoint lfemur
    lfemur ltibia
    ltibia lfoot
    lfoot ltoes
    rhipjoint rfemur
    rfemur rtibia
    rtibia rfoot
    rfoot rtoes
    lowerback upperback
    upperback thorax
    thorax lowerneck lclavicle rclavicle
    lowerneck upperneck
    upperneck head
    lclavicle lhumerus
    lhumerus lradius
    lradius lwrist
    lwrist lhand lthumb
    lhand lfingers
    rclavicle rhumerus
    rhumerus rradius
    rradius rwrist
    rwrist rhand rthumb
    rhand rfingers
  end

#!OML:ASF E:\motion texture\Top Level 1\Subject 1\Session 1\male.ASF
:FULLY-SPECIFIED
:DEGREES
124
root 30.3101 17.6255 4.01825 172.648 -82.8618 -165.353
lowerback 24.0904 25.6832 13.3984
upperback 9.60461 39.2583 11.2234
thorax -176.06 113.35 -1.96305
lowerneck 22.0349 23.931 13.464
upperneck -19.8207 74.679 -23.1271
head 306.416 107.556 163.391
rclavicle 2.16675e-014 -1.39149e-014
rhumerus 72.4721 -1.37999 104.07
rradius 88.9986
rwrist -54.2728
rhand -15.2126 -70.1348
rfingers 7.12502
rthumb 10.9597 99.8287
lclavicle 2.16675e-014 -1.39149e-014
lhumerus 103.371 3.67949 -107.002
lradius 78.755
lwrist 50.4199
lhand -2.31592 56.428
lfingers 7.12502
lthumb 23.3704 85.0292
rfemur -13.4911 -0.22296 19.9298
rtibia 52.9666
rfoot 3.49666 1.28745
rtoes 5.11279
lfemur -23.5963 -2.94019 -19.4249
ltibia 21.0166
lfoot -4.42801 6.30399
ltoes 7.89977
125
root 30.1763 17.636 4.02358 174.211 -82.9999 -167.053
lowerback 24.1265 25.608 13.2083
upperback 9.68979 39.3173 11.2185
thorax -175.918 113.269 -1.82376
lowerneck 22.0483 23.9407 13.4594
upperneck -19.8598 74.6861 -23.1666
head 306.135 107.482 163.119
rclavicle 2.5842e-014 4.77083e-015
rhumerus 71.633 -1.20243 104.504
rradius 88.3244
rwrist -54.4911
rhand -15.1728 -70.3417
rfingers 7.12502
rthumb 10.9981 100.034
lclavicle 2.5842e-014 4.77083e-015
lhumerus 104.215 3.93552 -106.683
lradius 79.6003
lwrist 50.5679
lhand -2.39514 56.1936
lfingers 7.12502
lthumb 23.2944 84.8044
rfemur -14.5144 -0.241683 19.6063
rtibia 54.3497
rfoot 3.86082 0.893757
rtoes 5.17944
lfemur -22.9672 -3.07936 -19.8465
ltibia 21.0203
lfoot -4.73411 6.14039
ltoes 8.15795
126
root 30.0432 17.6464 4.02831 175.775 -83.142 -168.751
lowerback 24.1665 25.5298 13.0181
upperback 9.77729 39.3764 11.2151
thorax -175.777 113.205 -1.68562
lowerneck 22.0605 23.9435 13.4472
upperneck -19.8969 74.6892 -23.2016
head 305.785 107.375 162.776
rclavicle 1.05356e-014 9.54166e-015
rhumerus 70.8224 -1.00659 104.936
rradius 87.6457
rwrist -54.7186
rhand -15.1129 -70.5203
rfingers 7.12502
rthumb 11.0559 100.209
lclavicle 1.05356e-014 9.54166e-015
lhumerus 105.002 4.16101 -106.35
lradius 80.4535
lwrist 50.7274
lhand -2.49005 55.9537
lfingers 7.12502
lthumb 23.2033 84.576
rfemur -15.5475 -0.27169 19.3006
rtibia 55.6529
rfoot 4.14692 0.487216
rtoes 5.25835
lfemur -22.3246 -3.21306 -20.2592
ltibia 20.9946
lfoot -5.04801 5.97683
ltoes 8.3717
127
root 29.9108 17.6566 4.03242 177.34 -83.2898 -170.447
lowerback 24.2095 25.4485 12.8271
upperback 9.86648 39.4343 11.2126
thorax -175.635 113.163 -1.54927
lowerneck 22.0729 23.9411 13.4281
upperneck -19.9361 74.6896 -23.2366
head 305.36 107.236 162.355
rclavicle 5.33737e-014 -6.14245e-014
rhumerus 70.0413 -0.795356 105.362
rradius 86.9645
rwrist -54.9547
rhand -15.0322 -70.6829
rfingers 7.12502
rthumb 11.1337 100.368
lclavicle 5.33737e-014 -6.14245e-014
lhumerus 105.729 4.35305 -106.008
lradius 81.3157
lwrist 50.9012
lhand -2.60273 55.7031
lfingers 7.12502
lthumb 23.0952 84.3389
rfemur -16.5868 -0.314744 19.0134
rtibia 56.8672
rfoot 4.35674 0.0651062
rtoes 5.34324
lfemur -21.6709 -3.34147 -20.6617
ltibia 20.9404
lfoot -5.37221 5.81312
ltoes 8.54883
128
root 29.7791 17.6667 4.03584 178.903 -83.4437 -172.137
lowerback 24.2498 25.365 12.6337
upperback 9.95433 39.4875 11.2076
thorax -175.497 113.146 -1.41509
lowerneck 22.0833 23.9325 13.4009
upperneck -19.9711 74.6859 -23.2644
head 304.854 107.063 161.849
rclavicle 7.96133e-014 2.18663e-014
rhumerus 69.2883 -0.567132 105.777
rradius 86.2815
rwrist -55.1998
rhand -14.9324 -70.8233
rfingers 7.12502
rthumb 11.23 100.503
lclavicle 7.96133e-014 2.18663e-014
lhumerus 106.386 4.5099 -105.661
lradius 82.1872
lwrist 51.0899
lhand -2.73187 55.4517
lfingers 7.12502
lthumb 22.9713 84.103
rfemur -17.6278 -0.371591 18.746
rtibia 57.9835
rfoot 4.49242 -0.376339
rtoes 5.43513
lfemur -21.0074 -3.46379 -21.0526
ltibia 20.8582
lfoot -5.70502 5.64874
ltoes 8.69312
129
root 29.6481 17.6765 4.0385 180.463 -83.6059 -173.82
lowerback 24.2956 25.2776 12.4441
upperback 10.0441 39.5402 11.2055
thorax -175.361 113.145 -1.28519
lowerneck 22.0964 23.9211 13.3687
upperneck -20.0179 74.6834 -23.3031
head 304.273 106.868 161.272
rclavicle -5.69518e-014 -6.81831e-014
rhumerus 68.5755 -0.325396 106.177
rradius 85.5982
rwrist -55.4533
rhand -14.8157 -70.9395
rfingers 7.12502
rthumb 11.3425 100.613
lclavicle -5.69518e-014 -6.81831e-014
lhumerus 106.976 4.63451 -105.311
lradius 83.0696
lwrist 51.2933
lhand -2.88035 55.2019
lfingers 7.12502
lthumb 22.8288 83.8709
rfemur -18.6655 -0.444678 18.4995
rtibia 58.9931
rfoot 4.55669 -0.83891
rtoes 5.53808
lfemur -20.3352 -3.57778 -21.4306
ltibia 20.749
lfoot -6.04257 5.48238
ltoes 8.79269
130
root 29.5179 17.6858 4.04042 182.046 -83.7779 -175.521
lowerback 24.3468 25.186 12.257
upperback 10.1363 39.5925 11.206
thorax -175.227 113.16 -1.15887
lowerneck 22.1143 23.9091 13.3337
upperneck -20.0819 74.6834 -23.3592
head 303.616 106.658 160.626
rclavicle 2.47487e-014 -2.48481e-014
rhumerus 67.9045 -0.0725816 106.562
rradius 84.9158
rwrist -55.7175
rhand -14.686 -71.0316
rfingers 7.12502
rthumb 11.4675 100.698
lclavicle 2.47487e-014 -2.48481e-014
lhumerus 107.5 4.72726 -104.96
lradius 83.9625
lwrist 51.509
lhand -3.044 54.9621
lfingers 7.12502
lthumb 22.6717 83.6503
rfemur -19.6968 -0.536203 18.2714
rtibia 59.888
rfoot 4.55404 -1.32427
rtoes 5.64834
lfemur -19.6579 -3.68315 -21.7985
ltibia 20.617
lfoot -6.37908 5.31691
ltoes 8.84299
131
root 29.3885 17.6947 4.04147 183.611 -83.9597 -177.197
lowerback 24.4 25.0915 12.0773
upperback 10.227 39.6405 11.2078
thorax -175.099 113.194 -1.04036
lowerneck 22.1355 23.8962 13.2944
upperneck -20.1615 74.6869 -23.4302
head 302.883 106.432 159.91
rclavicle -9.13416e-014 6.36111e-015
rhumerus 67.2762 0.190236 106.93
rradius 84.2352
rwrist -55.993
rhand -14.5514 -71.1059
rfingers 7.12502
rthumb 11.5974 100.765
lclavicle -9.13416e-014 6.36111e-015
lhumerus 107.95 4.78821 -104.611
lradius 84.8664
lwrist 51.7362
lhand -3.22364 54.7358
lfingers 7.12502
lthumb 22.4993 83.4451
rfemur -20.7176 -0.643562 18.0692
rtibia 60.6606
rfoot 4.48599 -1.83551
rtoes 5.76947
lfemur -18.9774 -3.77826 -22.148
ltibia 20.4646
lfoot -6.70994 5.16087
ltoes 8.85727
132
root 29.2599 17.703 4.04165 185.197 -84.1525 -178.887
lowerback 24.4488 24.9948 11.9017
upperback 10.3131 39.6803 11.207
thorax -174.979 113.251 -0.928984
lowerneck 22.1585 23.8837 13.2502
upperneck -20.2518 74.6939 -23.5106
head 302.082 106.192 159.126
rclavicle -1.16289e-014 -6.77856e-014
rhumerus 66.6849 0.460871 107.28
rradius 83.5568
rwrist -56.2754
rhand -14.4075 -71.1621
rfingers 7.12502
rthumb 11.7362 100.813
lclavicle -1.16289e-014 -6.77856e-014
lhumerus 108.32 4.81554 -104.264
lradius 85.7804
lwrist 51.9717
lhand -3.41502 54.5302
lfingers 7.12502
lthumb 22.3156 83.2616
rfemur -21.7244 -0.76932 17.8888
rtibia 61.3043
rfoot 4.35783 -2.37216
rtoes 5.89641
lfemur -18.2957 -3.86265 -22.483
ltibia 20.2941
lfoot -7.03781 5.01392
ltoes 8.81477
133
root 29.1321 17.7106 4.04097 186.832 -84.3577 -180.618
lowerback 24.5001 24.8943 11.7308
upperback 10.399 39.7166 11.2075
thorax -174.864 113.324 -0.82374
lowerneck 22.1874 23.8733 13.2044
upperneck -20.3648 74.7062 -23.6144
head 301.202 105.946 158.275
rclavicle 8.85586e-014 1.39149e-014
rhumerus 66.14 0.735479 107.609
rradius 82.8831
rwrist -56.5633
rhand -14.2527 -71.1992
rfingers 7.12502
rthumb 11.8854 100.842
lclavicle 8.85586e-014 1.39149e-014
lhumerus 108.617 4.81285 -103.924
lradius 86.7044
lwrist 52.2147
lhand -3.61652 54.3476
lfingers 7.12502
lthumb 22.1222 83.102
rfemur -22.7146 -0.914518 17.7279
rtibia 61.8153
rfoot 4.17129 -2.93363
rtoes 6.04624
lfemur -17.6163 -3.93783 -22.8042
ltibia 20.1082
lfoot -7.36604 4.86439
ltoes 8.73094
134
root 29.0052 17.7175 4.0394 188.513 -84.5764 -182.386
lowerback 24.548 24.7911 11.5664
upperback 10.48 39.7443 11.206
thorax -174.757 113.417 -0.727043
lowerneck 22.2202 23.8653 13.1557
upperneck -20.494 74.7228 -23.7343
head 300.244 105.691 157.351
rclavicle -1.33881e-013 1.15295e-014
rhumerus 65.6378 1.01229 107.918
rradius 82.2148
rwrist -56.8539
rhand -14.0953 -71.2263
rfingers 7.12502
rthumb 12.0372 100.86
lclavicle -1.33881e-013 1.15295e-014
lhumerus 108.835 4.7796 -103.592
lradius 87.6366
lwrist 52.4633
lhand -3.82556 54.1904
lfingers 7.12502
lthumb 21.9215 82.9684
rfemur -23.6845 -1.07952 17.5884
rtibia 62.1898
rfoot 3.92922 -3.51923
rtoes 6.2268
lfemur -16.9408 -4.00475 -23.1084
ltibia 19.9067
lfoot -7.69145 4.70462
ltoes 8.63172
135
root 28.8791 17.7238 4.03685 190.285 -84.8065 -184.238
lowerback 24.5955 24.6844 11.4036
upperback 10.5598 39.7677 11.2038
thorax -174.655 113.53 -0.635625
lowerneck 22.2578 23.8587 13.1053
upperneck -20.6405 74.7418 -23.8717
head 299.187 105.429 156.335
rclavicle -1.35174e-014 1.92821e-014
rhumerus 65.1832 1.28929 108.204
rradius 81.5548
rwrist -57.1479
rhand -13.9411 -71.2557
rfingers 7.12502
rthumb 12.1859 100.881
lclavicle -1.35174e-014 1.92821e-014
lhumerus 108.975 4.72066 -103.273
lradius 88.5756
lwrist 52.7159
lhand -4.04418 54.0621
lfingers 7.12502
lthumb 21.7115 82.8646
rfemur -24.6304 -1.26265 17.4678
rtibia 62.4213
rfoot 3.63843 -4.12642
rtoes 6.41577
lfemur -16.2688 -4.06039 -23.3975
ltibia 19.6901
lfoot -8.01275 4.53725
ltoes 8.50988
136
root 28.7538 17.7292 4.03334 192.193 -85.0504 -186.218
lowerback 24.6466 24.5729 11.2459
upperback 10.64 39.7881 11.2035
thorax -174.558 113.655 -0.549975
lowerneck 22.3028 23.8559 13.0551
upperneck -20.8122 74.7655 -24.0358
head 298.033 105.166 155.237
rclavicle 4.17448e-014 3.57812e-015
rhumerus 64.7795 1.56293 108.467
rradius 80.9067
rwrist -57.4459
rhand -13.7968 -71.2714
rfingers 7.12502
rthumb 12.3251 100.888
lclavicle 4.17448e-014 3.57812e-015
lhumerus 109.043 4.63816 -102.967
lradius 89.5217
lwrist 52.9746
lhand -4.27483 53.9604
lfingers 7.12502
lthumb 21.49 82.7883
rfemur -25.5475 -1.46687 17.3631
rtibia 62.5086
rfoot 3.30275 -4.75119
rtoes 6.62494
lfemur -15.6009 -4.11059 -23.6735
ltibia 19.4621
lfoot -8.32955 4.36673
ltoes 8.35737
137
root 28.6292 17.7339 4.02889 194.236 -85.3083 -188.326
lowerback 24.7004 24.4569 11.095
upperback 10.7193 39.8045 11.2046
thorax -174.467 113.794 -0.47173
lowerneck 22.356 23.8579 13.0068
upperneck -21.009 74.7924 -24.2272
head 296.776 104.906 154.051
rclavicle -7.51406e-014 -4.51241e-014
rhumerus 64.4276 1.83015 108.706
rradius 80.2725
rwrist -57.7452
rhand -13.658 -71.285
rfingers 7.12502
rthumb 12.4588 100.894
lclavicle -7.51406e-014 -4.51241e-014
lhumerus 109.039 4.5325 -102.676
lradius 90.4738
lwrist 53.2381
lhand -4.5145 53.8874
lfingers 7.12502
lthumb 21.2598 82.7415
rfemur -26.4349 -1.69109 17.2778
rtibia 62.4503
rfoot 2.92648 -5.38977
rtoes 6.8643
lfemur -14.9411 -4.15471 -23.9308
ltibia 19.2262
lfoot -8.64139 4.19067
ltoes 8.18106
